<svg width="135" height="41" viewBox="0 0 135 41" fill="none" xmlns="http://www.w3.org/2000/svg">
<path d="M34.5167 6.59077C34.5167 6.59077 37.7542 5.32827 37.4833 8.3941C37.3942 9.6566 36.585 14.0758 35.955 18.8549L33.7967 33.0133C33.7967 33.0133 33.6167 35.0874 31.9975 35.4483C30.3792 35.8083 27.9508 34.1858 27.5008 33.8249C27.1408 33.5541 20.7558 29.4958 18.5075 27.5124C17.8775 26.9708 17.1575 25.8891 18.5975 24.6266L28.0408 15.6083C29.12 14.5249 30.1992 11.9999 25.7025 15.0666L13.1108 23.6333C13.1108 23.6333 11.6717 24.5358 8.97417 23.7241L3.1275 21.9199C3.1275 21.9199 0.969167 20.5674 4.65667 19.2149C13.6508 14.9766 24.7133 10.6483 34.5158 6.58993" fill="black"/>
<path d="M117.433 10.5001C116.15 11.0834 114.767 11.4667 113.333 11.6501C114.8 10.7667 115.933 9.36675 116.467 7.68341C115.083 8.51675 113.55 9.10008 111.933 9.43341C110.617 8.00008 108.767 7.16675 106.667 7.16675C102.75 7.16675 99.55 10.3667 99.55 14.3167C99.55 14.8834 99.6167 15.4334 99.7333 15.9501C93.8 15.6501 88.5167 12.8001 85 8.48341C84.3833 9.53341 84.0333 10.7667 84.0333 12.0667C84.0333 14.5501 85.2833 16.7501 87.2167 18.0001C86.0333 18.0001 84.9333 17.6667 83.9667 17.1667V17.2167C83.9667 20.6834 86.4333 23.5834 89.7 24.2334C88.6514 24.5216 87.5501 24.5616 86.4833 24.3501C86.936 25.7709 87.8226 27.0141 89.0184 27.905C90.2142 28.7958 91.6591 29.2896 93.15 29.3168C90.6228 31.3176 87.49 32.3991 84.2667 32.3834C83.7 32.3834 83.1333 32.3501 82.5667 32.2834C85.7333 34.3167 89.5 35.5001 93.5333 35.5001C106.667 35.5001 113.883 24.6001 113.883 15.1501C113.883 14.8334 113.883 14.5334 113.867 14.2167C115.267 13.2167 116.467 11.9501 117.433 10.5001Z" fill="black"/>
</svg>
